<?xml version="1.0" encoding="utf-8"?>
<!-- Generator: Adobe Illustrator 18.1.1, SVG Export Plug-In . SVG Version: 6.00 Build 0)  -->
<svg version="1.1" id="Layer_1" xmlns="http://www.w3.org/2000/svg" xmlns:xlink="http://www.w3.org/1999/xlink" x="0px" y="0px"
	 viewBox="0 0 72 108" enable-background="new 0 0 72 108" xml:space="preserve">
<g>
	<path fill="#FFEC39" d="M34.9,96.7c-0.9,0.7-9.2,6.8-21.7,7.4c0.2,1.9-0.1,2.6-0.7,2.2c-0.7-0.4-7.4-5.7-7.4-5.7S4.6,99.9,5,99.2
		s5.9-11.1,5.9-11.1l25.1,7.1L34.9,96.7z"/>
	<path fill="#00398C" d="M22,80.3L18.9,81l-6.8-51l4.5-1.4L15.7,14c0,0,0,0,2.6-1.6c1,11.5,1.3,17,1.3,17l-4.8,1.9L22,80.3z"/>
	<path fill="#FFEC39" d="M37.5,56.8c0,0,16.2-5.2,22.7,3.4s-5.9,17.3-11.5,20.3c-5.6,3,7.9,1.7,7.9,1.7s10.6-6,10.8-14.9
		c0.2-8.9-3.6-16.5-12.4-18s-17,0.4-17,0.4"/>
	<path fill="#31008D" d="M20.8,80.5L14.6,31l4.8-1.6l-1.5-16.7c0,0,12.1-7.3,14.5-10.6c-0.1,5.5-0.6,7.1-0.6,7.1S43.4,2.8,45.2,0
		c-0.1,6.4-9.8,78.6-9.8,78.6"/>
	<path fill="#FFEC39" d="M19.7,61.2c0,0-9,5.2-9.4,5.6c-0.5,0.4,0.7-7,2.4-8.3c-2.2-1.1-2.8-2.1-3.1-2.7s0.3-0.8,1.5-1.3
		c1.4-0.5,5.8-2.2,7.3-2.3"/>
	<path fill="#CC3300" d="M35.6,96c-1.8,0.1-3.9,0.9-5.4,1.1c-3,0.4-6,0.5-9,0c-2.1-0.3-4.1-1-5.9-2c-0.9-0.5-1.8-1.2-2.6-2
		c-0.7-0.7-1.6-1.4-2-2.4c-0.4-0.7-0.4-1.6-0.4-2.5c0-1.4,0.4-2.7,1.1-3.9c1.5-2.6,4.2-4.4,6.9-5.6c3-1.4,6.3-2.2,9.5-2.5
		c1.6-0.1,3.3-0.2,4.9,0.1c0.7,0.1,5.1,0.5,4.7,2c-0.4,1.2-2,1-2.7,1.9c-1.3,1.7,1.1,2.4,2.3,2.3c3.4-0.4,15.9-5.4,25.9-0.3
		c3.5,1.8,5.7,5.1,5.3,9.1c-0.4,4.4-3.1,7.9-6.9,10c-4.1,2.2-8.7,2.9-13.3,3.6c-3.1,0.5-6.2,0.8-9.3,0.2c-0.4-0.1-0.8-0.2-1.2-0.3
		c-1.3-0.4-3.5-1.2-3.6-2.9c0-1,0.6-1.8,1.4-2.4c0.8-0.5,3.7-1.3,2.9-2.8c-0.1-0.3-0.4-0.4-0.7-0.5C36.9,96,36.2,96,35.6,96z"/>
	<g>
		
			<path fill="#FFFFFF" stroke="#FFFFFF" stroke-width="0.5344" stroke-linecap="round" stroke-linejoin="round" stroke-miterlimit="10" d="
			M29.1,21.9l0.4-3.1c0.1-0.6,0.2-1.5,0.4-2.2h0c-0.3,0.8-0.7,1.5-1,2.2l-1.5,3h-0.8l-0.3-3c-0.1-0.7-0.1-1.4-0.1-2.2h0
			c-0.2,0.8-0.3,1.6-0.5,2.2l-0.7,3.1h-1l1.6-6.5h1.3l0.3,3.1c0,0.5,0.1,1.2,0.1,1.8h0c0.2-0.6,0.5-1.2,0.8-1.8l1.5-3.1H31l-0.9,6.5
			H29.1z"/>
		
			<path fill="#FFFFFF" stroke="#FFFFFF" stroke-width="0.5344" stroke-linecap="round" stroke-linejoin="round" stroke-miterlimit="10" d="
			M29.2,28.6h-2.1l-0.4,2h2.3l-0.2,0.9h-3.4l1.2-6.5H30l-0.2,0.9h-2.2l-0.3,1.7h2.1L29.2,28.6z"/>
		
			<path fill="#FFFFFF" stroke="#FFFFFF" stroke-width="0.5344" stroke-linecap="round" stroke-linejoin="round" stroke-miterlimit="10" d="
			M26.9,34.6h1.1l-1.1,5.5h2.3L29,41.1h-3.4L26.9,34.6z"/>
		
			<path fill="#FFFFFF" stroke="#FFFFFF" stroke-width="0.5344" stroke-linecap="round" stroke-linejoin="round" stroke-miterlimit="10" d="
			M26.9,44.2h1.1l-1.1,5.5h2.3L29,50.7h-3.4L26.9,44.2z"/>
		
			<path fill="#FFFFFF" stroke="#FFFFFF" stroke-width="0.5344" stroke-linecap="round" stroke-linejoin="round" stroke-miterlimit="10" d="
			M30.4,56.3c0,1.2-0.4,2.6-1.2,3.4c-0.5,0.5-1.2,0.8-2,0.8c-1.6,0-2.2-1.3-2.2-2.5c0-1.2,0.4-2.6,1.3-3.4c0.5-0.5,1.2-0.8,2-0.8
			C29.8,53.8,30.4,55,30.4,56.3z M27,55.1C26.4,55.7,26,57,26,57.9c0,0.8,0.3,1.6,1.3,1.6c0.4,0,0.7-0.2,1-0.5
			c0.6-0.6,0.9-2,0.9-2.8c0-0.8-0.2-1.6-1.2-1.6C27.6,54.7,27.3,54.9,27,55.1z"/>
		
			<path fill="#FFFFFF" stroke="#FFFFFF" stroke-width="0.5344" stroke-linecap="round" stroke-linejoin="round" stroke-miterlimit="10" d="
			M25.7,68.8c0.3,0.2,0.8,0.4,1.3,0.4c0.6,0,1.1-0.4,1.1-1c0-0.4-0.3-0.7-0.8-1.1c-0.7-0.4-1.2-0.9-1.2-1.7c0-1.2,1-2,2.3-2
			c0.6,0,1.1,0.2,1.3,0.3l-0.3,0.9c-0.2-0.1-0.6-0.3-1-0.3c-0.7,0-1.1,0.4-1.1,0.9c0,0.4,0.3,0.7,0.9,1.1c0.7,0.4,1.1,1,1.1,1.7
			c0,1.3-1,2.1-2.4,2.1c-0.7,0-1.3-0.2-1.5-0.4L25.7,68.8z"/>
	</g>
	
		<text transform="matrix(1 0 0 1 15.2793 91.1473)" fill="#FFFFFF" stroke="#FFFFFF" stroke-width="0.1359" stroke-linecap="round" stroke-linejoin="round" stroke-miterlimit="10" font-family="'MyriadPro-Semibold'" font-size="8.5507">RESTAURANT</text>
</g>
</svg>
